<svg width="49" height="49" viewBox="0 0 49 49" fill="none" xmlns="http://www.w3.org/2000/svg">
<path d="M24.5 24.5C26.9367 24.5 29.2736 23.532 30.9965 21.809C32.7195 20.0861 33.6875 17.7492 33.6875 15.3125C33.6875 12.8758 32.7195 10.5389 30.9965 8.81596C29.2736 7.09297 26.9367 6.125 24.5 6.125C22.0633 6.125 19.7264 7.09297 18.0035 8.81596C16.2805 10.5389 15.3125 12.8758 15.3125 15.3125C15.3125 17.7492 16.2805 20.0861 18.0035 21.809C19.7264 23.532 22.0633 24.5 24.5 24.5V24.5ZM30.625 15.3125C30.625 16.937 29.9797 18.4949 28.831 19.6435C27.6824 20.7922 26.1245 21.4375 24.5 21.4375C22.8755 21.4375 21.3176 20.7922 20.169 19.6435C19.0203 18.4949 18.375 16.937 18.375 15.3125C18.375 13.688 19.0203 12.1301 20.169 10.9815C21.3176 9.83281 22.8755 9.1875 24.5 9.1875C26.1245 9.1875 27.6824 9.83281 28.831 10.9815C29.9797 12.1301 30.625 13.688 30.625 15.3125V15.3125ZM42.875 39.8125C42.875 42.875 39.8125 42.875 39.8125 42.875H9.1875C9.1875 42.875 6.125 42.875 6.125 39.8125C6.125 36.75 9.1875 27.5625 24.5 27.5625C39.8125 27.5625 42.875 36.75 42.875 39.8125ZM39.8125 39.8003C39.8094 39.0469 39.3409 36.7806 37.2645 34.7042C35.2678 32.7075 31.5101 30.625 24.5 30.625C17.4869 30.625 13.7323 32.7075 11.7355 34.7042C9.65913 36.7806 9.19363 39.0469 9.1875 39.8003H39.8125Z" fill="#3A3A3A"/>
</svg>
